<?xml version="1.0" standalone="no"?>
<!DOCTYPE svg PUBLIC "-//W3C//DTD SVG 20010904//EN"
 "http://www.w3.org/TR/2001/REC-SVG-20010904/DTD/svg10.dtd">
<svg version="1.0" xmlns="http://www.w3.org/2000/svg"
 width="512.000000pt" height="512.000000pt" viewBox="0 0 512.000000 512.000000"
 preserveAspectRatio="xMidYMid meet">
<metadata>
Created by potrace 1.14, written by Peter Selinger 2001-2017
</metadata>
<g transform="translate(0.000000,512.000000) scale(0.100000,-0.100000)"
fill="#000000" stroke="none">
<path d="M971 5019 c-77 -15 -166 -64 -229 -126 -70 -69 -91 -100 -120 -173
-32 -80 -33 -90 -36 -265 l-2 -160 -100 -6 c-141 -9 -206 -49 -248 -154 -43
-105 -15 -214 75 -285 52 -41 93 -53 194 -55 33 -1 65 -3 70 -3 7 -1 10 -88
10 -244 l0 -243 -101 -6 c-107 -5 -163 -27 -209 -81 -105 -122 -67 -311 77
-382 44 -22 65 -26 140 -26 48 0 88 -3 89 -7 1 -5 2 -116 3 -249 l1 -240 -60
1 c-122 1 -193 -22 -245 -82 -45 -51 -63 -98 -63 -168 0 -95 46 -171 133 -216
35 -19 66 -25 140 -29 l95 -5 0 -242 c0 -210 -2 -243 -15 -244 -8 0 -49 -2
-90 -3 -50 -2 -90 -9 -120 -23 -187 -85 -192 -350 -8 -444 38 -19 88 -26 198
-28 l35 -1 1 -142 c0 -193 8 -238 58 -337 35 -68 137 -168 207 -203 94 -47
150 -56 319 -54 l155 1 0 2468 0 2467 -155 -1 c-85 -1 -175 -5 -199 -10z"/>
<path d="M1699 5018 c-4 -37 -4 -4905 -1 -4916 3 -10 248 -12 1201 -12 1150 0
1200 1 1267 20 94 26 158 63 226 131 65 66 124 177 135 254 4 28 7 231 7 453
l1 403 25 -6 c140 -35 240 -5 305 93 37 56 42 98 40 342 -1 209 -3 228 -23
266 -59 113 -179 167 -295 131 -26 -8 -48 -12 -50 -9 -3 6 -1 292 2 300 1 1
10 -2 22 -8 107 -58 263 0 320 118 22 45 23 59 25 279 0 161 -3 243 -12 268
-36 106 -116 168 -221 171 -38 2 -78 -3 -98 -12 -19 -8 -36 -14 -37 -14 -2 0
-3 70 -3 155 0 85 1 155 2 155 2 0 21 -7 43 -16 87 -35 215 2 272 78 50 68 53
86 53 343 0 233 -1 241 -24 287 -29 56 -67 93 -124 119 -50 22 -134 25 -182 5
-19 -8 -35 -14 -36 -13 -1 1 -2 52 -4 112 -3 129 -15 185 -54 264 -55 108
-151 194 -273 244 l-53 22 -1227 3 c-989 2 -1228 0 -1229 -10z"/>
</g>
</svg>
